<svg width="800" height="800" viewBox="0 0 800 800" fill="none" xmlns="http://www.w3.org/2000/svg">
<path d="M195 471.5C195 471.5 173.002 500.15 163.5 521C154.201 541.406 147 576 147 576H415C415 576 420.958 560.684 423.5 550.5C428.3 531.272 428.206 519.816 428.5 500C428.671 488.474 429.054 481.922 427.5 470.5C426.095 460.175 421.5 444.5 421.5 444.5L400.5 447.5L293 546.5L332 462.5C332 462.5 292.584 474.545 266.5 476.5C252.091 477.58 243.91 477.57 229.5 476.5C215.924 475.492 195 471.5 195 471.5Z" fill="white"/>
<path d="M442 481.5C442 481.5 444.71 511.254 442 530C439.321 548.529 428.5 576 428.5 576H656C656 576 655.271 561.558 653.5 552.5C649.22 530.608 642.113 519.341 631 500C622.066 484.452 616.591 475.743 604.5 462.5C593.018 449.925 571.5 434 571.5 434C571.5 434 547.207 417.378 530 410C510.451 401.618 498.206 400.365 477.5 395.5C468.552 393.397 454.5 390.5 454.5 390.5L452.5 415L513.5 546.5L442 481.5Z" fill="white"/>
<path d="M195 471.5C195 471.5 173.002 500.15 163.5 521C154.201 541.406 147 576 147 576H415C415 576 420.958 560.684 423.5 550.5C428.3 531.272 428.206 519.816 428.5 500C428.671 488.474 429.054 481.922 427.5 470.5C426.095 460.175 421.5 444.5 421.5 444.5L400.5 447.5L293 546.5L332 462.5C332 462.5 292.584 474.545 266.5 476.5C252.091 477.58 243.91 477.57 229.5 476.5C215.924 475.492 195 471.5 195 471.5Z" stroke="#F1F1F1"/>
<path d="M442 481.5C442 481.5 444.71 511.254 442 530C439.321 548.529 428.5 576 428.5 576H656C656 576 655.271 561.558 653.5 552.5C649.22 530.608 642.113 519.341 631 500C622.066 484.452 616.591 475.743 604.5 462.5C593.018 449.925 571.5 434 571.5 434C571.5 434 547.207 417.378 530 410C510.451 401.618 498.206 400.365 477.5 395.5C468.552 393.397 454.5 390.5 454.5 390.5L452.5 415L513.5 546.5L442 481.5Z" stroke="#F1F1F1"/>
<path d="M363 428.5L353 411.407L219.112 340.809L320 346.5C320 346.5 290.818 321.821 282.429 297.046C273.446 270.521 265 221 265 221C265 221 249.083 216.394 235.037 212.25C219.314 207.612 210.031 206.279 193.685 205.036C177.119 203.776 167.621 203.789 151.152 205.982C135.897 208.013 127.348 210.053 112.821 215.134C97.1621 220.611 87.4539 223.106 74.5069 233.478C62.2605 243.289 55.6363 250.403 49.2701 264.745C42.2176 280.633 42.5249 291.546 43.6105 308.895C44.9704 330.628 50.1378 342.811 60.1595 362.143C71.5413 384.1 81.8584 394.549 99.9543 411.407C114.543 424.997 123.555 432.123 141.021 441.739C156.073 450.026 181.736 458.419 181.736 458.419C181.736 458.419 201.056 463.062 213.622 464.998C230.408 467.584 239.979 469.249 256.953 468.701C274.993 468.119 302.982 460.541 302.982 460.541C302.982 460.541 317.901 456.037 327.009 452.013C336.27 447.922 363 428.5 363 428.5Z" fill="white" stroke="#F1F1F1"/>
<path d="M265.5 790.5H541.5" stroke="white" stroke-width="7" stroke-linecap="round"/>
<path d="M359.502 365.5L375.002 351.5L401.502 207L422.002 299.5C422.002 299.5 446.257 266.156 466.002 249C487.142 230.632 526.502 210.5 526.502 210.5C526.502 210.5 527.992 187.569 526.502 173C524.834 156.692 522.548 147.597 517.502 132C512.388 116.192 508.775 107.408 500.502 92.9999C492.839 79.6536 487.711 72.5163 477.502 60.9999C466.498 48.586 460.508 40.5486 446.002 32.4999C432.281 24.8868 423.187 21.454 407.502 20.9999C390.127 20.497 380.144 24.9186 364.502 32.4999C344.907 41.9974 335.593 51.3973 321.502 67.9999C305.499 86.8559 299.741 100.364 291.002 123.5C283.957 142.151 280.779 153.193 278.502 173C276.54 190.071 278.502 217 278.502 217C278.502 217 281.53 236.638 284.502 249C288.472 265.513 290.56 275 297.502 290.5C304.88 306.973 322.502 330 322.502 330C322.502 330 332.327 342.098 339.502 349C346.8 356.019 359.502 365.5 359.502 365.5Z" fill="white" stroke="#F1F1F1"/>
<path d="M417.002 343L437.002 354.5L585.355 338.166L500.002 383C500.002 383 539.943 396.818 561.661 411.397C584.913 427.006 614.627 459.74 614.627 459.74C614.627 459.74 637.152 455.189 650.825 449.945C666.131 444.075 674.314 439.493 688.051 430.548C701.974 421.482 709.51 415.701 721.257 403.952C732.138 393.069 737.688 386.254 746.138 373.392C755.247 359.527 761.441 351.646 765.421 335.541C769.186 320.308 770.124 310.633 766.466 295.374C762.413 278.47 755.537 269.989 744.133 256.87C729.847 240.436 718.34 233.9 698.634 224.636C676.252 214.114 661.709 212.084 637.094 209.691C617.25 207.762 605.762 207.579 586.047 210.555C569.057 213.119 543.575 222.048 543.575 222.048C543.575 222.048 525.41 230.1 514.253 236.198C499.35 244.343 490.738 248.837 477.589 259.586C463.615 271.011 445.991 294.036 445.991 294.036C445.991 294.036 436.879 306.679 432.091 315.409C427.221 324.286 417.002 343 417.002 343Z" fill="white" stroke="#F1F1F1"/>
<path d="M98.4247 724V655.84H127.801C131.129 655.84 134.201 656.512 137.017 657.856C139.833 659.2 142.265 661.024 144.313 663.328C146.361 665.568 147.929 668.096 149.017 670.912C150.169 673.728 150.745 676.576 150.745 679.456C150.745 683.488 149.785 687.296 147.865 690.88C146.009 694.464 143.385 697.408 139.993 699.712C136.665 701.952 132.761 703.072 128.281 703.072H117.145V724H98.4247ZM117.145 686.752H127.033C127.801 686.752 128.537 686.528 129.241 686.08C129.945 685.632 130.521 684.864 130.969 683.776C131.481 682.688 131.737 681.248 131.737 679.456C131.737 677.536 131.449 676.064 130.873 675.04C130.361 673.952 129.689 673.216 128.857 672.832C128.089 672.384 127.321 672.16 126.553 672.16H117.145V686.752ZM207.412 655.84H228.34L250.036 724H231.028L226.9 710.656H208.756L204.724 724H185.62L207.412 655.84ZM223.924 698.176L217.876 674.176L211.54 698.176H223.924ZM340.906 672.16H321.322V724H302.602V672.16H282.922V655.84H340.906V672.16ZM386.125 724V655.84H417.421C420.749 655.84 423.821 656.512 426.637 657.856C429.453 659.2 431.885 661.024 433.933 663.328C435.981 665.568 437.549 668.096 438.637 670.912C439.789 673.728 440.365 676.576 440.365 679.456C440.365 682.08 439.981 684.608 439.213 687.04C438.445 689.472 437.325 691.712 435.853 693.76C434.381 695.744 432.621 697.472 430.573 698.944L444.973 724H424.429L412.429 703.072H404.845V724H386.125ZM404.845 686.752H416.653C417.421 686.752 418.157 686.464 418.861 685.888C419.565 685.312 420.141 684.48 420.589 683.392C421.101 682.304 421.357 680.992 421.357 679.456C421.357 677.856 421.069 676.544 420.493 675.52C419.981 674.432 419.309 673.6 418.477 673.024C417.709 672.448 416.941 672.16 416.173 672.16H404.845V686.752ZM489.306 724V655.84H508.026V724H489.306ZM588.895 724.576C583.711 724.576 579.007 723.616 574.783 721.696C570.559 719.712 566.911 717.088 563.839 713.824C560.831 710.496 558.495 706.784 556.831 702.688C555.231 698.528 554.431 694.24 554.431 689.824C554.431 685.28 555.295 680.96 557.023 676.864C558.751 672.768 561.151 669.12 564.223 665.92C567.359 662.656 571.039 660.096 575.263 658.24C579.551 656.384 584.223 655.456 589.279 655.456C594.463 655.456 599.167 656.448 603.391 658.432C607.615 660.352 611.231 662.976 614.239 666.304C617.247 669.632 619.551 673.376 621.151 677.536C622.815 681.632 623.647 685.856 623.647 690.208C623.647 694.688 622.783 698.976 621.055 703.072C619.391 707.168 616.991 710.848 613.855 714.112C610.783 717.312 607.135 719.872 602.911 721.792C598.687 723.648 594.015 724.576 588.895 724.576ZM573.439 690.016C573.439 692.32 573.759 694.56 574.399 696.736C575.039 698.848 575.999 700.768 577.279 702.496C578.559 704.16 580.159 705.504 582.079 706.528C584.063 707.488 586.399 707.968 589.087 707.968C591.775 707.968 594.111 707.456 596.095 706.432C598.079 705.408 599.679 704.032 600.895 702.304C602.175 700.512 603.103 698.56 603.679 696.448C604.319 694.272 604.639 692.064 604.639 689.824C604.639 687.52 604.319 685.312 603.679 683.2C603.039 681.088 602.079 679.2 600.799 677.536C599.519 675.808 597.887 674.464 595.903 673.504C593.919 672.544 591.615 672.064 588.991 672.064C586.303 672.064 583.967 672.576 581.983 673.6C580.063 674.624 578.463 676 577.183 677.728C575.903 679.392 574.943 681.312 574.303 683.488C573.727 685.6 573.439 687.776 573.439 690.016ZM722.038 672.16H702.454V724H683.734V672.16H664.054V655.84H722.038V672.16Z" fill="white"/>
</svg>
